<?xml version="1.0" encoding="utf-8"?>
<!-- Generator: Adobe Illustrator 21.0.0, SVG Export Plug-In . SVG Version: 6.00 Build 0)  -->
<svg version="1.1" id="Layer_1" xmlns="http://www.w3.org/2000/svg" xmlns:xlink="http://www.w3.org/1999/xlink" x="0px" y="0px"
	 width="1400px" height="980px" viewBox="0 0 1400 980" style="enable-background:new 0 0 1400 980;" xml:space="preserve">
<style type="text/css">
	.st0{fill:#606060;}
</style>
<path class="st0" d="M467.8,77.8c-1-1-2.7-1-3.7,0l-15.4,15.4c-0.9,0.9-1,2.3-0.3,3.3l-15,2.8c-0.6,0.1-1.3,0.3-1.9,0.4
	c-0.6-0.2-1.3-0.3-1.9-0.4l-15-2.8c0.7-1,0.6-2.4-0.3-3.3l-15.4-15.4c-1-1-2.7-1-3.7,0l-43.7,43.7c-1,1-1,2.7,0,3.7l15.4,15.4
	c0.5,0.5,1.2,0.8,1.8,0.8c0.7,0,1.3-0.3,1.8-0.8l0.7-0.7l1.4,2.7c2.9,5.5,6.5,10.7,10.6,15.6c-2.1,4.3-1.6,9.1,1.2,12.1
	c1.5,1.6,3.4,2.6,5.5,2.9c-1.6,2.2-2.4,4.8-2.4,7.4c0.1,2.8,1.1,5.3,3.1,7.1c2.7,2.5,6.6,3.1,10.4,1.9c0,0.1,0,0.2,0,0.2
	c0,2.8,1.1,5.3,3.1,7.1c1.8,1.7,4.2,2.5,6.7,2.5c3.2,0,6.7-1.4,9.3-4l2.1,2.1c2.7,2.7,6.2,4.1,9.5,4.1c2.5,0,4.9-0.8,6.7-2.5
	c1.5-1.4,2.5-3.2,2.9-5.3l1.5,1.5c4.7,4.7,12,5.5,16.1,1.6c1.9-1.8,3-4.3,3.1-7.1c0-0.1,0-0.2,0-0.2c3.7,1.2,7.7,0.6,10.4-1.9
	c1.9-1.8,3-4.3,3.1-7.1c0-2.6-0.8-5.2-2.4-7.4c2.1-0.4,4.1-1.4,5.5-2.9c2.9-3.1,3.2-7.9,1.2-12.2c4.1-4.8,7.7-10,10.6-15.5l1.4-2.7
	l0.7,0.7c0.5,0.5,1.2,0.8,1.8,0.8s1.3-0.3,1.8-0.8l15.4-15.4c1-1,1-2.7,0-3.7L467.8,77.8z M357,123.3l40-40l11.8,11.8l-40,40
	L357,123.3z M387.2,162.6c0.3,0.3,0.5,0.5,0.8,0.8l4.8,4.8c-1.8,0.3-3.4-0.2-4.5-1.3C387.3,165.7,387,164.2,387.2,162.6z
	 M403.2,182.5c-2.7,2.7-6.8,3.4-8.9,1.5c-1.1-1.1-1.4-2.4-1.4-3.4c0-1.9,0.8-3.9,2.4-5.5l2.3-2.3l7.7,7.7l-0.2,0.2L403.2,182.5z
	 M407.7,193.2c-1.1-1.1-1.4-2.4-1.4-3.4c0-1.9,0.8-3.9,2.4-5.5l0.2-0.2l7.7,7.7C413.7,194.5,409.7,195.1,407.7,193.2z M474.7,166.8
	c-1.1,1.1-2.4,1.4-3.4,1.4c-1.9,0-3.9-0.8-5.5-2.4L441,140.9c-1-1-2.7-1-3.7,0c-1,1-1,2.7,0,3.7l24.9,24.9c0,0,0,0,0,0l5.6,5.6
	c1.6,1.6,2.4,3.5,2.4,5.5c0,1-0.3,2.3-1.4,3.4c-2.1,1.9-6.2,1.3-8.9-1.5l-1.8-1.8l-28.4-28.4c-1-1-2.7-1-3.7,0c-1,1-1,2.7,0,3.7
	l28.4,28.4c1.6,1.6,2.4,3.5,2.4,5.5c0,1-0.3,2.3-1.4,3.4c-2.1,1.9-6.2,1.3-8.9-1.5l-8.8-8.8l-19.3-19.3c-1-1-2.7-1-3.7,0
	c-1,1-1,2.7,0,3.7l19.3,19.3c1.6,1.6,2.4,3.5,2.4,5.5c0,1-0.3,2.3-1.4,3.4c-2.1,1.9-6.2,1.3-8.9-1.5l-15.3-15.3c0,0,0,0,0,0
	c0,0,0,0,0,0l-19-19c-5.8-5.8-10.6-12.3-14.4-19.5l-2.2-4.1l35.1-35.1l18.5,3.4c6.9,1.3,13.7,4.9,19,10.3l11.2,11.2
	c2.6,2.6,3.4,6.5,1.6,8.7c-0.6,0.7-1.3,1.1-1.9,1.3l-16.4-16.4c-1-1-2.7-1-3.7,0c-1,1-1,2.7,0,3.7l17.4,17.4l17.3,17.3
	C476,160.6,476.7,164.7,474.7,166.8z M487.9,136.1l-2.2,4.1c-2.5,4.8-5.6,9.4-9.2,13.6l-14.1-14.1c0.8-0.5,1.5-1.1,2.1-1.9
	c3.4-4.2,2.6-11.1-2-15.6L451.3,111c-3.1-3.1-6.7-5.8-10.6-7.8l12.1-2.2L487.9,136.1z M494.2,135.1l-40-40L466,83.3l40,40
	L494.2,135.1z"/>
<g>
	<path class="st0" d="M779.3,170.3h-3.4v-82c0-1.4-1.2-2.6-2.6-2.6H638.7c-1.4,0-2.6,1.2-2.6,2.6v82h-3.4c-1.4,0-2.6,1.2-2.6,2.6
		v17.6c0,1.4,1.2,2.6,2.6,2.6h146.7c1.4,0,2.6-1.2,2.6-2.6v-17.6C781.9,171.5,780.8,170.3,779.3,170.3z M641.3,90.9h129.4v79.4h-7.4
		v-69.5c0-1.4-1.2-2.6-2.6-2.6H651.3c-1.4,0-2.6,1.2-2.6,2.6v69.5h-7.4V90.9z M758.2,170.3H653.9v-66.9h104.3V170.3z M776.7,187.9
		H635.3v-12.4h3.4h12.6h109.5h12.6h3.4V187.9z"/>
	<path class="st0" d="M678.5,155.1c0.7,0,1.3-0.3,1.8-0.8l20-20l10,10c1,1,2.7,1,3.7,0l21.4-21.4c1-1,1-2.7,0-3.7c-1-1-2.7-1-3.7,0
		l-19.5,19.5l-10-10c-1-1-2.7-1-3.7,0l-21.8,21.8c-1,1-1,2.7,0,3.7C677.1,154.9,677.8,155.1,678.5,155.1z"/>
</g>
<g>
	<path class="st0" d="M1041.1,101c0-0.2-0.1-0.4-0.2-0.6c0,0,0,0,0,0c0,0,0,0-0.1-0.1c-0.1-0.2-0.2-0.3-0.3-0.4c0,0-0.1-0.1-0.1-0.1
		c-0.1-0.2-0.3-0.3-0.5-0.4c0,0-0.1,0-0.1-0.1c-0.2-0.1-0.3-0.2-0.5-0.2c-0.1,0-0.1,0-0.2-0.1c-0.2-0.1-0.4-0.1-0.7-0.1H1012V88.3
		c0-1.4-1.2-2.6-2.6-2.6h-57.7c-1.4,0-2.6,1.2-2.6,2.6v10.6h-26.6c-0.2,0-0.4,0-0.7,0.1c-0.1,0-0.1,0-0.2,0.1
		c-0.2,0.1-0.3,0.1-0.5,0.2c0,0-0.1,0-0.1,0.1c-0.2,0.1-0.3,0.3-0.5,0.4c0,0-0.1,0.1-0.1,0.1c-0.1,0.1-0.2,0.3-0.3,0.4
		c0,0,0,0-0.1,0.1c0,0,0,0,0,0c-0.1,0.2-0.2,0.4-0.2,0.6c0,0,0,0.1,0,0.1c0,0.1,0,0.2,0,0.3v89c0,1.4,1.2,2.6,2.6,2.6h116.1
		c1.4,0,2.6-1.2,2.6-2.6v-89c0-0.1,0-0.2,0-0.3C1041.1,101.1,1041.1,101.1,1041.1,101z M954.3,90.9h52.5v8h-52.5V90.9z M951.7,104.1
		h57.7h23.8l-23.3,29.2h-58.7l-23.3-29.2H951.7z M925.1,187.9v-79l22.8,28.6c0.5,0.6,1.2,1,2,1h61.2c0.8,0,1.5-0.4,2-1l22.8-28.6v79
		H925.1z"/>
	<path class="st0" d="M980.5,143.4c-4.7,0-8.5,3.8-8.5,8.5c0,4.7,3.8,8.5,8.5,8.5c4.7,0,8.5-3.8,8.5-8.5
		C989,147.2,985.2,143.4,980.5,143.4z M980.5,155.2c-1.8,0-3.3-1.5-3.3-3.3s1.5-3.3,3.3-3.3s3.3,1.5,3.3,3.3
		S982.4,155.2,980.5,155.2z"/>
</g>
<g>
	<path class="st0" d="M1200.6,196.4h108.9c1.4,0,2.6-1.2,2.6-2.6s-1.2-2.6-2.6-2.6h-106.4V84.9c0-1.4-1.2-2.6-2.6-2.6
		c-1.4,0-2.6,1.2-2.6,2.6v108.9C1198,195.3,1199.1,196.4,1200.6,196.4z"/>
	<path class="st0" d="M1216.8,180.2h15.8c1.4,0,2.6-1.2,2.6-2.6v-45.8c0-1.4-1.2-2.6-2.6-2.6h-15.8c-1.4,0-2.6,1.2-2.6,2.6v45.8
		C1214.2,179,1215.4,180.2,1216.8,180.2z M1219.4,134.4h10.6V175h-10.6V134.4z"/>
	<path class="st0" d="M1247.2,180.2h15.8c1.4,0,2.6-1.2,2.6-2.6v-62.8c0-1.4-1.2-2.6-2.6-2.6h-15.8c-1.4,0-2.6,1.2-2.6,2.6v62.8
		C1244.6,179,1245.8,180.2,1247.2,180.2z M1249.8,117.3h10.6V175h-10.6V117.3z"/>
	<path class="st0" d="M1277.7,180.2h15.8c1.4,0,2.6-1.2,2.6-2.6v-80c0-1.4-1.2-2.6-2.6-2.6h-15.8c-1.4,0-2.6,1.2-2.6,2.6v80
		C1275.1,179,1276.2,180.2,1277.7,180.2z M1280.3,100.2h10.6V175h-10.6V100.2z"/>
</g>
<g>
	<path class="st0" d="M218.2,435.7H98.4V315.9c0-1.4-1.2-2.6-2.6-2.6s-2.6,1.2-2.6,2.6v122.4c0,1.4,1.2,2.6,2.6,2.6h122.4
		c1.4,0,2.6-1.2,2.6-2.6C220.8,436.9,219.6,435.7,218.2,435.7z"/>
	<path class="st0" d="M145,380.2c-0.9-0.9-2.2-1-3.2-0.3l-32,20.7c-1.2,0.8-1.5,2.4-0.8,3.6c0.5,0.8,1.3,1.2,2.2,1.2
		c0.5,0,1-0.1,1.4-0.4l30.2-19.6l15.8,15.8c0.5,0.5,1.2,0.8,1.9,0.8c0.7,0,1.4-0.3,1.9-0.9l37.2-43l0.5,9.2c0.1,1.4,1.3,2.5,2.7,2.5
		c1.4-0.1,2.5-1.3,2.5-2.7l-0.8-15.7c0-0.4-0.1-0.7-0.3-1.1c-0.2-0.4-0.5-0.8-0.9-1c0,0,0,0,0,0c-0.1-0.1-0.2-0.1-0.3-0.2
		c0,0,0,0,0,0c-0.4-0.2-0.9-0.3-1.3-0.2c0,0,0,0,0,0c0,0,0,0,0,0l-15.6,1.5c-1.3,0.1-2.4,1.3-2.4,2.6c0,0.1,0,0.2,0,0.2
		c0.1,1.4,1.4,2.5,2.8,2.3l9.2-0.9l-35.4,40.9L145,380.2z"/>
</g>
<g>
	<path class="st0" d="M433.6,371.9v-11.1c1.8,0.8,3,2.3,3.4,4.5l7.2-0.9c-0.5-2.8-1.6-5.1-3.4-6.8c-1.8-1.7-4.2-2.7-7.2-3.1v-2.8
		h-4.1v2.8c-3.2,0.3-5.8,1.5-7.8,3.6c-2,2.1-2.9,4.7-2.9,7.8c0,3.1,0.9,5.7,2.6,7.8c1.7,2.1,4.4,3.7,8.1,4.8v11.9
		c-1-0.5-1.9-1.3-2.8-2.4c-0.8-1.1-1.4-2.4-1.7-3.9l-7.4,0.8c0.6,3.7,1.9,6.6,3.9,8.6c2,2,4.7,3.3,8,3.7v5.2h4.1v-5.3
		c3.7-0.5,6.6-2,8.6-4.3c2.1-2.3,3.1-5.2,3.1-8.6c0-3.1-0.8-5.6-2.5-7.5C441.2,374.8,438.2,373.2,433.6,371.9z M429.5,370.6
		c-1.2-0.5-2.1-1.2-2.7-2.1c-0.6-0.9-0.9-1.8-0.9-2.8c0-1.1,0.3-2.1,1-3c0.7-0.9,1.5-1.5,2.7-1.9V370.6z M437.1,388.9
		c-0.9,1-2,1.7-3.5,2v-11c1.7,0.5,2.9,1.2,3.7,2.1c0.7,0.9,1.1,2,1.1,3.3C438.4,386.7,438,387.9,437.1,388.9z"/>
	<path class="st0" d="M508,333.7h-23.1H378H355c-1.4,0-2.6,1.2-2.6,2.6v23.1v35.5v23.1c0,1.4,1.2,2.6,2.6,2.6H378h106.9H508
		c1.4,0,2.6-1.2,2.6-2.6v-23.1v-35.5v-23.1C510.6,334.9,509.5,333.7,508,333.7z M482.4,415.3H380.6v-1.6c0-11.8-9.6-21.5-21.5-21.5
		h-1.6V362h1.6c11.8,0,21.5-9.6,21.5-21.5v-1.6h101.7v1.6c0,11.8,9.6,21.5,21.5,21.5h1.6v30.3h-1.6c-11.8,0-21.5,9.6-21.5,21.5
		V415.3z M505.4,338.9v17.9h-1.6c-9,0-16.3-7.3-16.3-16.3v-1.6H505.4z M357.6,338.9h17.9v1.6c0,9-7.3,16.3-16.3,16.3h-1.6V338.9z
		 M357.6,415.3v-17.9h1.6c9,0,16.3,7.3,16.3,16.3v1.6H357.6z M505.4,415.3h-17.9v-1.6c0-9,7.3-16.3,16.3-16.3h1.6V415.3z"/>
</g>
<path class="st0" d="M766.9,371.1h-6l-11.7-30.8h10.9c1.4,0,2.6-1.2,2.6-2.6v-11.7c0-1.4-1.2-2.6-2.6-2.6h-45.4v-7.5
	c0-1.4-1.2-2.6-2.6-2.6h-12.2c-1.4,0-2.6,1.2-2.6,2.6v7.5h-45.4c-1.4,0-2.6,1.2-2.6,2.6v11.7c0,1.4,1.2,2.6,2.6,2.6h10.9l-11.7,30.8
	h-6c-1.4,0-2.6,1.2-2.6,2.6c0,13.3,10.8,24,24,24c13.3,0,24-10.8,24-24c0-1.4-1.2-2.6-2.6-2.6h-6l-11.7-30.8h27v81.1h-26
	c-1.4,0-2.6,1.2-2.6,2.6v14.2c0,1.4,1.2,2.6,2.6,2.6h69.2c1.4,0,2.6-1.2,2.6-2.6v-14.2c0-1.4-1.2-2.6-2.6-2.6h-26v-81.1h27
	L730,371.1h-6c-1.4,0-2.6,1.2-2.6,2.6c0,13.3,10.8,24,24,24s24-10.8,24-24C769.4,372.3,768.3,371.1,766.9,371.1z M666.6,392.6
	c-9.5,0-17.4-7.1-18.7-16.3h5h27.3h5C684,385.5,676.1,392.6,666.6,392.6z M656.7,371.1l9.9-26.1l9.9,26.1H656.7z M702.5,318.5h7v4.9
	h-7V318.5z M654.5,328.7h45.4c0,0,0,0,0,0s0,0,0,0h12.1c0,0,0,0,0,0s0,0,0,0h45.4v6.5H654.5V328.7z M738,435.7H674v-9.1h26h12.2h26
	V435.7z M709.5,421.5h-7v-81.1h7V421.5z M745.4,345.1l9.9,26.1h-19.8L745.4,345.1z M745.4,392.6c-9.5,0-17.4-7.1-18.7-16.3h5h27.3h5
	C762.8,385.5,754.9,392.6,745.4,392.6z"/>
<path class="st0" d="M980.5,316.5c-33.4,0-60.6,27.2-60.6,60.6c0,9.4,2.2,18.4,6,26.3c0,0,0,0.1,0.1,0.1c0,0,0.1,0.1,0.1,0.1
	c9.9,20.1,30.6,34,54.5,34c16.7,0,31.8-6.8,42.8-17.7c0,0,0,0,0,0c0,0,0,0,0,0c11-11,17.7-26.1,17.7-42.8
	C1041.2,343.7,1014,316.5,980.5,316.5z M977.9,321.7v53.8L929.6,399c-2.9-6.7-4.5-14.1-4.5-21.9
	C925.1,347.4,948.6,323.1,977.9,321.7z M931.8,403.6l48.2-23.4l37.8,37.8c-9.9,9-23,14.5-37.3,14.5
	C959.6,432.6,941.3,420.9,931.8,403.6z M1021.5,414.4l-38.4-38.4v-54.3c29.4,1.4,52.9,25.7,52.9,55.4
	C1036,391.5,1030.5,404.6,1021.5,414.4z"/>
<g>
	<path class="st0" d="M1297.3,437.8c1.4,0,2.6-1.2,2.6-2.6V319.1c0-1.4-1.2-2.6-2.6-2.6h-84.4c-1.4,0-2.6,1.2-2.6,2.6v116.1
		c0,1.4,1.2,2.6,2.6,2.6H1297.3z M1215.4,321.7h79.2v110.9h-79.2V321.7z"/>
	<path class="st0" d="M1227.2,366.1h55.8c1.4,0,2.6-1.2,2.6-2.6v-30c0-1.4-1.2-2.6-2.6-2.6h-55.8c-1.4,0-2.6,1.2-2.6,2.6v30
		C1224.6,364.9,1225.7,366.1,1227.2,366.1z M1229.7,336.1h50.6v24.8h-50.6V336.1z"/>
	<path class="st0" d="M1238.2,378.4H1227c-1.4,0-2.6,1.2-2.6,2.6v11.2c0,1.4,1.2,2.6,2.6,2.6h11.2c1.4,0,2.6-1.2,2.6-2.6V381
		C1240.8,379.5,1239.7,378.4,1238.2,378.4z M1235.6,389.6h-6v-6h6V389.6z"/>
	<path class="st0" d="M1260.7,378.4h-11.2c-1.4,0-2.6,1.2-2.6,2.6v11.2c0,1.4,1.2,2.6,2.6,2.6h11.2c1.4,0,2.6-1.2,2.6-2.6V381
		C1263.2,379.5,1262.1,378.4,1260.7,378.4z M1258.1,389.6h-6v-6h6V389.6z"/>
	<path class="st0" d="M1283.1,378.4h-11.2c-1.4,0-2.6,1.2-2.6,2.6v11.2c0,1.4,1.2,2.6,2.6,2.6h11.2c1.4,0,2.6-1.2,2.6-2.6V381
		C1285.7,379.5,1284.5,378.4,1283.1,378.4z M1280.5,389.6h-6v-6h6V389.6z"/>
	<path class="st0" d="M1238.2,400.5H1227c-1.4,0-2.6,1.2-2.6,2.6v11.2c0,1.4,1.2,2.6,2.6,2.6h11.2c1.4,0,2.6-1.2,2.6-2.6v-11.2
		C1240.8,401.7,1239.7,400.5,1238.2,400.5z M1235.6,411.8h-6v-6h6V411.8z"/>
	<path class="st0" d="M1260.7,400.5h-11.2c-1.4,0-2.6,1.2-2.6,2.6v11.2c0,1.4,1.2,2.6,2.6,2.6h11.2c1.4,0,2.6-1.2,2.6-2.6v-11.2
		C1263.2,401.7,1262.1,400.5,1260.7,400.5z M1258.1,411.8h-6v-6h6V411.8z"/>
	<path class="st0" d="M1283.1,400.5h-11.2c-1.4,0-2.6,1.2-2.6,2.6v11.2c0,1.4,1.2,2.6,2.6,2.6h11.2c1.4,0,2.6-1.2,2.6-2.6v-11.2
		C1285.7,401.7,1284.5,400.5,1283.1,400.5z M1280.5,411.8h-6v-6h6V411.8z"/>
</g>
<path class="st0" d="M133,669.2c0,5.3,4.4,9.7,9.7,9.7h28.6c5.3,0,9.7-4.4,9.7-9.7v-26.1c0-8,2.7-15.5,7.7-21.1
	c7.1-7.8,10.9-18,10.9-28.5c0-12.1-5.2-23.7-14.2-31.8c-9.2-8.2-21-12-33.3-10.6c-19.9,2.2-35.7,18.3-37.6,38.2
	c-1.1,11.9,2.5,23.3,10.3,32.2c5.3,6,8.1,13.6,8.1,21.4V669.2z M175.8,661.9h-37.6v-4.6h37.6V661.9z M175.8,645.7v6.5h-37.6v-6.6
	L175.8,645.7z M171.3,673.7h-28.6c-2.5,0-4.5-2-4.5-4.5v-2.1h37.6v2.1C175.8,671.7,173.8,673.7,171.3,673.7z M128.7,618.1
	c-6.8-7.8-10.1-17.9-9.1-28.3c1.7-17.5,15.6-31.6,33-33.5c10.8-1.2,21.2,2.1,29.3,9.3c7.9,7.1,12.5,17.3,12.5,27.9
	c0,9.3-3.4,18.2-9.6,25c-5.3,5.9-8.4,13.5-9,21.8h-16.3v-37.1c0-1.4-1.2-2.6-2.6-2.6s-2.6,1.2-2.6,2.6v37.1h-16.3
	C137.5,632.2,134.2,624.4,128.7,618.1z"/>
<g>
	<path class="st0" d="M405.1,672h83.7c1.4,0,2.6-1.2,2.6-2.6V560.4c0-1.4-1.2-2.6-2.6-2.6h-83.7c-1.4,0-2.6,1.2-2.6,2.6v6.7h-12.9
		c-1.4,0-2.6,1.2-2.6,2.6v5.4h-12.9c-1.4,0-2.6,1.2-2.6,2.6v77.7c0,1.4,1.2,2.6,2.6,2.6h12.9v5.4c0,1.4,1.2,2.6,2.6,2.6h12.9v3.4
		C402.5,670.8,403.7,672,405.1,672z M407.7,563h78.5v103.8h-78.5v-3.4v-93.7V563z M376.8,652.8v-72.5h10.3v72.5H376.8z M392.3,660.8
		v-5.4v-77.7v-5.4h10.3v88.5H392.3z"/>
	<path class="st0" d="M417.7,600.1h32c1.4,0,2.6-1.2,2.6-2.6v-24c0-1.4-1.2-2.6-2.6-2.6h-32c-1.4,0-2.6,1.2-2.6,2.6v24
		C415.1,598.9,416.2,600.1,417.7,600.1z M420.3,576.1h26.8v18.8h-26.8V576.1z"/>
	<path class="st0" d="M417.7,615.9h58.6c1.4,0,2.6-1.2,2.6-2.6c0-1.4-1.2-2.6-2.6-2.6h-58.6c-1.4,0-2.6,1.2-2.6,2.6
		C415.1,614.8,416.2,615.9,417.7,615.9z"/>
	<path class="st0" d="M417.7,631.8h58.6c1.4,0,2.6-1.2,2.6-2.6s-1.2-2.6-2.6-2.6h-58.6c-1.4,0-2.6,1.2-2.6,2.6
		S416.2,631.8,417.7,631.8z"/>
	<path class="st0" d="M417.7,647.6h58.6c1.4,0,2.6-1.2,2.6-2.6s-1.2-2.6-2.6-2.6h-58.6c-1.4,0-2.6,1.2-2.6,2.6
		S416.2,647.6,417.7,647.6z"/>
</g>
<g>
	<path class="st0" d="M689.9,588.2v21.2c0,1.4,1.2,2.6,2.6,2.6h27c1.4,0,2.6-1.2,2.6-2.6v-21.2c0-4.9-2.8-9.2-6.8-11.4
		c2.8-2.5,4.5-6.2,4.5-10.2c0-7.6-6.2-13.8-13.8-13.8s-13.8,6.2-13.8,13.8c0,4,1.7,7.7,4.5,10.2C692.7,579,689.9,583.2,689.9,588.2z
		 M706,557.9c4.8,0,8.6,3.9,8.6,8.6s-3.9,8.6-8.6,8.6c-4.8,0-8.6-3.9-8.6-8.6S701.3,557.9,706,557.9z M695.1,588.2
		c0-4.3,3.5-7.8,7.8-7.8h6.3c4.3,0,7.8,3.5,7.8,7.8v18.6h-21.8V588.2z"/>
	<path class="st0" d="M755.9,641.8c2.8-2.5,4.5-6.2,4.5-10.2c0-7.6-6.2-13.8-13.8-13.8s-13.8,6.2-13.8,13.8c0,4,1.7,7.7,4.5,10.2
		c-4,2.2-6.8,6.5-6.8,11.4v21.2c0,1.4,1.2,2.6,2.6,2.6h27c1.4,0,2.6-1.2,2.6-2.6v-21.2C762.7,648.3,759.9,644,755.9,641.8z
		 M746.6,623c4.8,0,8.6,3.9,8.6,8.6c0,4.8-3.9,8.6-8.6,8.6c-4.8,0-8.6-3.9-8.6-8.6C738,626.9,741.8,623,746.6,623z M757.5,671.8
		h-21.8v-18.6c0-4.3,3.5-7.8,7.8-7.8h6.3c4.3,0,7.8,3.5,7.8,7.8V671.8z"/>
	<path class="st0" d="M681.5,674.4v-21.2c0-4.9-2.8-9.2-6.8-11.4c2.8-2.5,4.5-6.2,4.5-10.2c0-7.6-6.2-13.8-13.8-13.8
		s-13.8,6.2-13.8,13.8c0,4,1.7,7.7,4.5,10.2c-4,2.2-6.8,6.5-6.8,11.4v21.2c0,1.4,1.2,2.6,2.6,2.6h27
		C680.4,677,681.5,675.9,681.5,674.4z M665.4,623c4.8,0,8.6,3.9,8.6,8.6c0,4.8-3.9,8.6-8.6,8.6s-8.6-3.9-8.6-8.6
		C656.8,626.9,660.7,623,665.4,623z M676.4,671.8h-21.8v-18.6c0-4.3,3.5-7.8,7.8-7.8h6.3c4.3,0,7.8,3.5,7.8,7.8V671.8z"/>
	<path class="st0" d="M706,623.1c-1.4,0-2.6,1.2-2.6,2.6v15l-10.6,10.6c-1,1-1,2.7,0,3.7c0.5,0.5,1.2,0.8,1.8,0.8s1.3-0.3,1.8-0.8
		l9.5-9.5l9.5,9.5c0.5,0.5,1.2,0.8,1.8,0.8s1.3-0.3,1.8-0.8c1-1,1-2.7,0-3.7l-10.6-10.6v-15C708.6,624.3,707.4,623.1,706,623.1z"/>
</g>
<g>
	<path class="st0" d="M1206.6,565.9l-4,23.4c0,0.1,0,0.1,0,0.2c0,0.1,0,0.2,0,0.3v73.7c0,1.4,1.2,2.6,2.6,2.6h33.3h33.3h33.3
		c1.4,0,2.6-1.2,2.6-2.6v-73.7c0-0.1,0-0.2,0-0.3c0-0.1,0-0.1,0-0.2l-4-23.4c-0.2-1.2-1.3-2.2-2.6-2.2h-29.3h-33.3h-29.3
		C1207.9,563.7,1206.8,564.6,1206.6,565.9z M1207.7,592.3h28.1v68.5h-28.1V592.3z M1241,592.3h28.1v68.5H1241V592.3z M1302.4,660.8
		h-28.1v-68.5h28.1V660.8z M1301.9,587.1h-27.6v-18.2h24.5L1301.9,587.1z M1269.1,587.1H1241v-18.2h28.1V587.1z M1235.8,568.9v18.2
		h-27.6l3.1-18.2H1235.8z"/>
	<path class="st0" d="M1221.8,629.9c-5.5,0-9.9,4.4-9.9,9.9s4.4,9.9,9.9,9.9c5.5,0,9.9-4.4,9.9-9.9S1227.2,629.9,1221.8,629.9z
		 M1221.8,644.5c-2.6,0-4.7-2.1-4.7-4.7s2.1-4.7,4.7-4.7s4.7,2.1,4.7,4.7S1224.4,644.5,1221.8,644.5z"/>
	<path class="st0" d="M1229.1,601.3h-14.6c-1.4,0-2.6,1.2-2.6,2.6v10.1c0,1.4,1.2,2.6,2.6,2.6h14.6c1.4,0,2.6-1.2,2.6-2.6v-10.1
		C1231.7,602.4,1230.5,601.3,1229.1,601.3z M1226.5,611.3h-9.4v-4.9h9.4V611.3z"/>
	<path class="st0" d="M1288.3,649.7c5.5,0,9.9-4.4,9.9-9.9s-4.4-9.9-9.9-9.9c-5.5,0-9.9,4.4-9.9,9.9S1282.8,649.7,1288.3,649.7z
		 M1288.3,635.1c2.6,0,4.7,2.1,4.7,4.7s-2.1,4.7-4.7,4.7s-4.7-2.1-4.7-4.7S1285.7,635.1,1288.3,635.1z"/>
	<path class="st0" d="M1281,616.5h14.6c1.4,0,2.6-1.2,2.6-2.6v-10.1c0-1.4-1.2-2.6-2.6-2.6H1281c-1.4,0-2.6,1.2-2.6,2.6v10.1
		C1278.4,615.3,1279.6,616.5,1281,616.5z M1283.6,606.4h9.4v4.9h-9.4V606.4z"/>
	<path class="st0" d="M1255,629.9c-5.5,0-9.9,4.4-9.9,9.9s4.4,9.9,9.9,9.9c5.5,0,9.9-4.4,9.9-9.9S1260.5,629.9,1255,629.9z
		 M1255,644.5c-2.6,0-4.7-2.1-4.7-4.7s2.1-4.7,4.7-4.7s4.7,2.1,4.7,4.7S1257.6,644.5,1255,644.5z"/>
	<path class="st0" d="M1262.4,601.3h-14.6c-1.4,0-2.6,1.2-2.6,2.6v10.1c0,1.4,1.2,2.6,2.6,2.6h14.6c1.4,0,2.6-1.2,2.6-2.6v-10.1
		C1265,602.4,1263.8,601.3,1262.4,601.3z M1259.8,611.3h-9.4v-4.9h9.4V611.3z"/>
</g>
<g>
	<path class="st0" d="M211.8,794.3H102.1c-1.4,0-2.6,1.2-2.6,2.6v19.6c0,1.4,1.2,2.6,2.6,2.6h3.5v61.7c0,1.4,1.2,2.6,2.6,2.6h46.2
		v10.1c-3.8,1-6.6,4.5-6.6,8.6c0,4.9,4,8.9,8.9,8.9s8.9-4,8.9-8.9c0-3.9-2.5-7.2-6-8.4v-10.3h46.2c1.4,0,2.6-1.2,2.6-2.6v-61.7h3.5
		c1.4,0,2.6-1.2,2.6-2.6v-19.6C214.4,795.4,213.2,794.3,211.8,794.3z M156.6,905.8c-2,0-3.7-1.7-3.7-3.7s1.7-3.7,3.7-3.7
		s3.7,1.7,3.7,3.7S158.7,905.8,156.6,905.8z M203.1,878.2h-92.3v-59.1h92.3V878.2z M209.2,813.9h-3.5h-97.5h-3.5v-14.4h104.5V813.9z
		"/>
	<path class="st0" d="M128,869.4h11.9c1.4,0,2.6-1.2,2.6-2.6V846c0-1.4-1.2-2.6-2.6-2.6H128c-1.4,0-2.6,1.2-2.6,2.6v20.7
		C125.4,868.2,126.6,869.4,128,869.4z M130.6,848.6h6.7v15.5h-6.7V848.6z"/>
	<path class="st0" d="M151,869.4h11.9c1.4,0,2.6-1.2,2.6-2.6v-28.5c0-1.4-1.2-2.6-2.6-2.6H151c-1.4,0-2.6,1.2-2.6,2.6v28.5
		C148.4,868.2,149.6,869.4,151,869.4z M153.6,840.9h6.7v23.3h-6.7V840.9z"/>
	<path class="st0" d="M174,869.4h11.9c1.4,0,2.6-1.2,2.6-2.6v-36.2c0-1.4-1.2-2.6-2.6-2.6H174c-1.4,0-2.6,1.2-2.6,2.6v36.2
		C171.4,868.2,172.6,869.4,174,869.4z M176.6,833.1h6.7v31h-6.7V833.1z"/>
</g>
<g>
	<path class="st0" d="M490,818.9h-48v-5.6c0-5.1-4.1-9.2-9.2-9.2h-2.5c-5.1,0-9.2,4.1-9.2,9.2v5.6h-48c-1.4,0-2.6,1.2-2.6,2.6v77.1
		c0,1.4,1.2,2.6,2.6,2.6H490c1.4,0,2.6-1.2,2.6-2.6v-77.1C492.5,820.1,491.4,818.9,490,818.9z M426.2,813.3c0-2.2,1.8-4.1,4.1-4.1
		h2.5c2.2,0,4.1,1.8,4.1,4.1v15.4h-10.6V813.3z M487.4,896H375.6v-71.9H421v7.2c0,1.4,1.2,2.6,2.6,2.6h15.8c1.4,0,2.6-1.2,2.6-2.6
		v-7.2h45.4V896z"/>
	<path class="st0" d="M431.5,845.6c-1.4,0-2.6,1.2-2.6,2.6s1.2,2.6,2.6,2.6h39.7c1.4,0,2.6-1.2,2.6-2.6s-1.2-2.6-2.6-2.6H431.5z"/>
	<path class="st0" d="M471.2,862.6h-39.7c-1.4,0-2.6,1.2-2.6,2.6s1.2,2.6,2.6,2.6h39.7c1.4,0,2.6-1.2,2.6-2.6
		S472.7,862.6,471.2,862.6z"/>
	<path class="st0" d="M471.2,879.5h-39.7c-1.4,0-2.6,1.2-2.6,2.6c0,1.4,1.2,2.6,2.6,2.6h39.7c1.4,0,2.6-1.2,2.6-2.6
		C473.8,880.7,472.7,879.5,471.2,879.5z"/>
	<path class="st0" d="M410.1,861.1c1.9-2,3.1-4.6,3.1-7.5c0-6-4.9-10.8-10.8-10.8c-6,0-10.8,4.9-10.8,10.8c0,2.9,1.2,5.6,3.1,7.5
		c-2.9,2-4.8,5.3-4.8,9V885c0,1.4,1.2,2.6,2.6,2.6h19.8c1.4,0,2.6-1.2,2.6-2.6v-14.8C414.8,866.4,412.9,863.1,410.1,861.1z
		 M402.3,848c3.1,0,5.6,2.5,5.6,5.6c0,3.1-2.5,5.6-5.6,5.6c-3.1,0-5.6-2.5-5.6-5.6C396.7,850.5,399.2,848,402.3,848z M409.6,882.4
		H395v-12.2c0-3.2,2.6-5.8,5.8-5.8h3.1c3.2,0,5.8,2.6,5.8,5.8V882.4z"/>
</g>
<g>
	<path class="st0" d="M745.4,801.5h-15.9v-5.4c0-1.4-1.2-2.6-2.6-2.6h-41.9c-1.4,0-2.6,1.2-2.6,2.6v5.4h-15.9
		c-1.4,0-2.6,1.2-2.6,2.6v99.5c0,1.4,1.2,2.6,2.6,2.6h78.8c1.4,0,2.6-1.2,2.6-2.6V804C748,802.6,746.8,801.5,745.4,801.5z
		 M687.7,798.7h36.7v10.8h-36.7V798.7z M742.8,900.9h-73.6v-94.3h13.3v5.4c0,1.4,1.2,2.6,2.6,2.6H727c1.4,0,2.6-1.2,2.6-2.6v-5.4
		h13.3V900.9z"/>
	<path class="st0" d="M712.5,827.9h-34.6c-1.4,0-2.6,1.2-2.6,2.6c0,1.4,1.2,2.6,2.6,2.6h34.6c1.4,0,2.6-1.2,2.6-2.6
		C715.1,829,713.9,827.9,712.5,827.9z"/>
	<path class="st0" d="M721.9,821.7c-1.4,0-2.6,1.2-2.6,2.6v12.3c0,1.4,1.2,2.6,2.6,2.6h12.3c1.4,0,2.6-1.2,2.6-2.6v-12.3
		c0-1.4-1.2-2.6-2.6-2.6H721.9z M731.6,834h-7.1v-7.1h7.1V834z"/>
	<path class="st0" d="M712.5,852.5h-34.6c-1.4,0-2.6,1.2-2.6,2.6c0,1.4,1.2,2.6,2.6,2.6h34.6c1.4,0,2.6-1.2,2.6-2.6
		C715.1,853.7,713.9,852.5,712.5,852.5z"/>
	<path class="st0" d="M734.2,846.3h-12.3c-1.4,0-2.6,1.2-2.6,2.6v12.3c0,1.4,1.2,2.6,2.6,2.6h12.3c1.4,0,2.6-1.2,2.6-2.6v-12.3
		C736.8,847.5,735.6,846.3,734.2,846.3z M731.6,858.6h-7.1v-7.1h7.1V858.6z"/>
	<path class="st0" d="M712.5,877.1h-34.6c-1.4,0-2.6,1.2-2.6,2.6c0,1.4,1.2,2.6,2.6,2.6h34.6c1.4,0,2.6-1.2,2.6-2.6
		C715.1,878.3,713.9,877.1,712.5,877.1z"/>
	<path class="st0" d="M734.2,871h-12.3c-1.4,0-2.6,1.2-2.6,2.6v12.3c0,1.4,1.2,2.6,2.6,2.6h12.3c1.4,0,2.6-1.2,2.6-2.6v-12.3
		C736.8,872.1,735.6,871,734.2,871z M731.6,883.3h-7.1v-7.1h7.1V883.3z"/>
</g>
<path class="st0" d="M1025.9,826.6c-9-15.7-26-26.3-45.3-26.3c-28.8,0-52.3,23.5-52.3,52.3s23.5,52.3,52.3,52.3
	c28.8,0,52.3-23.5,52.3-52.3c0-9.2-2.4-17.9-6.6-25.5C1026.1,827,1026,826.8,1025.9,826.6z M1022.2,874.5h-15
	c1.5-5.9,2.5-12.4,2.7-19.3h17.7C1027.2,862.2,1025.3,868.7,1022.2,874.5z M938.8,874.6c-3.1-5.8-5-12.4-5.4-19.3h17.7
	c0.2,6.9,1.1,13.4,2.7,19.3h-14.9C938.9,874.5,938.9,874.6,938.8,874.6z M938.8,830.7h15c-1.5,5.9-2.5,12.4-2.7,19.3h-17.7
	C933.9,843.1,935.8,836.6,938.8,830.7z M983.1,825.5v-19c6.8,1.5,12.9,8.7,16.9,19H983.1z M1001.7,830.7c1.7,5.8,2.7,12.4,2.9,19.3
	h-21.5v-19.3H1001.7z M977.9,806.5v19h-16.9C965,815.2,971.1,808,977.9,806.5z M977.9,830.7V850h-21.5c0.2-6.9,1.2-13.5,2.9-19.3
	H977.9z M956.4,855.2h21.5v19.3h-18.6C957.6,868.7,956.6,862.1,956.4,855.2z M977.9,879.7v19c-6.8-1.5-12.9-8.7-16.9-19H977.9z
	 M983.1,898.8v-19h16.9C996.1,890.1,990,897.3,983.1,898.8z M983.1,874.5v-19.3h21.5c-0.2,6.9-1.2,13.5-2.9,19.3H983.1z M1009.9,850
	c-0.2-6.9-1.1-13.4-2.7-19.3h15c3.1,5.8,5,12.4,5.3,19.3H1009.9z M1019,825.5h-13.4c-2.5-7.3-6-13.4-10.3-17.6
	C1005,811.1,1013.3,817.4,1019,825.5z M965.7,807.9c-4.2,4.3-7.7,10.3-10.3,17.6H942C947.8,817.4,956,811.1,965.7,807.9z M942,879.7
	h13.4c2.5,7.3,6,13.4,10.3,17.6C956,894.1,947.8,887.9,942,879.7z M995.4,897.3c4.2-4.3,7.7-10.3,10.3-17.6h13.4
	C1013.3,887.9,1005,894.1,995.4,897.3z"/>
<path class="st0" d="M231.3,191.1h-4.2v-10.9c0-1.4-1.2-2.6-2.6-2.6h-12.3v-55.1h12.3c1.1,0,2.1-0.7,2.5-1.8c0.3-1.1,0-2.2-1-2.9
	l-67.5-48.3c-0.9-0.6-2.1-0.6-3,0l-67.5,48.3c-0.9,0.7-1.3,1.8-1,2.9c0.3,1.1,1.3,1.8,2.5,1.8h12.3v55.1H89.5
	c-1.4,0-2.6,1.2-2.6,2.6v10.9h-4.2c-1.4,0-2.6,1.2-2.6,2.6v13.5c0,1.4,1.2,2.6,2.6,2.6h148.6c1.4,0,2.6-1.2,2.6-2.6v-13.5
	C233.8,192.2,232.7,191.1,231.3,191.1z M207,177.6h-9.5v-55.1h9.5V177.6z M166.9,177.6v-55.1h25.4v55.1H166.9z M121.7,177.6v-55.1
	H147v55.1H121.7z M152.2,122.5h9.5v55.1h-9.5V122.5z M157,74.8l59.4,42.5h-6.8h-14.7h-30.6h-14.7h-30.6h-14.7h-6.8L157,74.8z
	 M107,122.5h9.5v55.1H107V122.5z M92,182.7h12.3h14.7h30.6h14.7h30.6h14.7h12.3v8.3H92V182.7z M228.7,204.6H85.3v-8.3h4.2h135.1h4.2
	V204.6z"/>
<g>
	<path class="st0" d="M1238.5,859.7v-10.5c1.7,0.8,2.8,2.2,3.2,4.3l6.8-0.9c-0.5-2.7-1.5-4.8-3.2-6.5c-1.7-1.6-4-2.6-6.8-2.9v-2.7
		h-3.9v2.7c-3.1,0.3-5.6,1.5-7.4,3.5c-1.9,2-2.8,4.5-2.8,7.4c0,2.9,0.8,5.4,2.5,7.4c1.6,2,4.2,3.6,7.8,4.6v11.3
		c-1-0.5-1.9-1.2-2.6-2.3c-0.8-1-1.3-2.3-1.6-3.7l-7,0.8c0.5,3.5,1.8,6.3,3.7,8.2c1.9,1.9,4.5,3.1,7.6,3.5v4.9h3.9v-5
		c3.5-0.5,6.2-1.9,8.2-4.1c2-2.2,3-5,3-8.2c0-2.9-0.8-5.3-2.3-7.2C1245.7,862.4,1242.8,860.9,1238.5,859.7z M1234.6,858.5
		c-1.2-0.5-2-1.2-2.6-2c-0.6-0.8-0.9-1.7-0.9-2.7c0-1,0.3-2,0.9-2.9c0.6-0.9,1.5-1.5,2.5-1.8V858.5z M1241.8,875.9
		c-0.8,1-1.9,1.6-3.3,1.9v-10.5c1.6,0.5,2.8,1.1,3.5,2c0.7,0.9,1.1,1.9,1.1,3.1C1243,873.8,1242.6,874.9,1241.8,875.9z"/>
	<path class="st0" d="M1319.9,840.6c0-25.5-20.8-46.3-46.3-46.3c-17.1,0-32.6,9.3-40.7,24.3c-23.9,1.8-42.7,21.8-42.7,46.1
		c0,25.5,20.8,46.3,46.3,46.3c17.6,0,32.9-9.8,40.7-24.3C1301.2,884.9,1319.9,864.9,1319.9,840.6z M1236.5,905.8
		c-22.7,0-41.1-18.4-41.1-41.1s18.4-41.1,41.1-41.1c22.7,0,41.1,18.4,41.1,41.1S1259.1,905.8,1236.5,905.8z M1268.3,829.7
		c0-1,0.3-2,0.9-2.9c0.6-0.9,1.5-1.5,2.5-1.8v9.3c-0.2-0.1-0.5-0.2-0.7-0.3c-0.8-0.9-1.6-1.7-2.4-2.5
		C1268.4,830.9,1268.3,830.3,1268.3,829.7z M1280.1,849.3c-0.6-1.8-1.4-3.5-2.2-5.2c0.5,0.3,0.9,0.6,1.2,1c0.7,0.9,1.1,1.9,1.1,3.1
		C1280.2,848.7,1280.2,849,1280.1,849.3z M1279.7,881.2c2-5.1,3.1-10.7,3.1-16.5c0-2.6-0.2-5.1-0.6-7.6c0.6-0.5,1.2-1,1.7-1.6
		c2-2.2,3-5,3-8.2c0-2.9-0.8-5.3-2.3-7.2c-1.6-1.9-4.5-3.4-8.8-4.5v-10.5c1.7,0.8,2.8,2.2,3.2,4.3l6.8-0.9c-0.5-2.7-1.5-4.8-3.2-6.5
		c-1.7-1.6-4-2.6-6.8-2.9v-2.7h-3.9v2.7c-3.1,0.3-5.6,1.5-7.4,3.5c-1,1.1-1.7,2.3-2.2,3.6c-6.7-4.5-14.6-7.3-23.2-7.7
		c7.5-11.8,20.4-19,34.6-19c22.7,0,41.1,18.4,41.1,41.1C1314.7,861.2,1299.6,878.3,1279.7,881.2z"/>
</g>
<g>
	<path class="st0" d="M938.8,655.5c0,1.4,1.2,2.6,2.6,2.6h20h20h20h20c1.4,0,2.6-1.2,2.6-2.6v-67.3c0-1.1-0.7-2.1-1.8-2.5
		c-1.1-0.3-2.2,0-2.9,1l-18.2,25.2l-17.8-18.4l-19.9-22c0,0-0.1-0.1-0.1-0.1c-0.1-0.1-0.2-0.2-0.3-0.3c-0.1-0.1-0.2-0.1-0.3-0.2
		c0,0-0.1-0.1-0.1-0.1c-0.1,0-0.2,0-0.3-0.1c-0.1,0-0.2-0.1-0.3-0.1c-0.1,0-0.3,0-0.4,0c-0.1,0-0.2,0-0.3,0c-0.1,0-0.3,0.1-0.4,0.1
		c-0.1,0-0.2,0-0.2,0.1c0,0,0,0-0.1,0c-0.1,0.1-0.2,0.1-0.4,0.2c-0.1,0.1-0.2,0.1-0.3,0.2c0,0,0,0-0.1,0l-20,17.6
		c-0.6,0.5-0.9,1.2-0.9,1.9V655.5z M1018.7,652.9h-14.8v-36.2l14.8-20.5V652.9z M998.7,652.9h-14.8v-51.2l14.8,15.3V652.9z
		 M978.7,652.9h-14.8v-73l14.8,16.3V652.9z M944,591.9l14.8-13v74H944V591.9z"/>
	<path class="st0" d="M963.2,555.1c-1-1-2.6-1.1-3.6-0.2l-20,17.8c-1.1,1-1.2,2.6-0.2,3.7c1,1.1,2.6,1.2,3.7,0.2l18.1-16.1l36,38
		c0.5,0.5,1.2,0.8,1.9,0.8c0,0,0.1,0,0.1,0c0.8,0,1.5-0.4,1.9-1l19.5-24.7l2.6,8.9c0.4,1.4,1.8,2.2,3.2,1.8c1.4-0.4,2.2-1.8,1.8-3.2
		l-3.9-13.7c0-0.1,0-0.1-0.1-0.2c-0.1-0.3-0.3-0.6-0.5-0.9v0c0,0,0,0,0,0c0,0,0,0,0,0c-0.1-0.1-0.3-0.3-0.4-0.4c0,0,0,0,0,0
		c0,0,0,0,0,0c0,0,0,0,0,0c-0.4-0.3-0.8-0.4-1.3-0.5c0,0,0,0,0,0h0c0,0,0,0,0,0c0,0,0,0,0,0h0c0,0,0,0,0,0c0,0,0,0,0,0c0,0,0,0,0,0
		c0,0,0,0,0,0c0,0,0,0,0,0c0,0,0,0,0,0c0,0,0,0,0,0l-14.3-0.7c-1.4,0-2.6,1-2.7,2.5c0,0,0,0.1,0,0.1c0,1.4,1.1,2.5,2.5,2.6l9.3,0.4
		l-17.6,22.4L963.2,555.1z"/>
	<path class="st0" d="M1038.6,670.3H925.1V556.8c0-1.4-1.2-2.6-2.6-2.6c-1.4,0-2.6,1.2-2.6,2.6v116.1c0,1.4,1.2,2.6,2.6,2.6h116.1
		c1.4,0,2.6-1.2,2.6-2.6C1041.2,671.5,1040,670.3,1038.6,670.3z"/>
</g>
</svg>
